<?xml version="1.0" standalone="no"?><!DOCTYPE svg PUBLIC "-//W3C//DTD SVG 1.1//EN" "http://www.w3.org/Graphics/SVG/1.1/DTD/svg11.dtd"><svg t="1557627118658" class="icon" style="" viewBox="0 0 1024 1024" version="1.1" xmlns="http://www.w3.org/2000/svg" p-id="12740" xmlns:xlink="http://www.w3.org/1999/xlink" width="200" height="200"><defs><style type="text/css"></style></defs><path d="M256 352c0 19.2-12.8 32-32 32s-32-12.8-32-32V256c0-35.2 28.8-64 64-64h512c35.2 0 64 28.8 64 64v96c0 19.2-12.8 32-32 32s-32-12.8-32-32V256H256v96z m512 320c0-19.2 12.8-32 32-32s32 12.8 32 32v96c0 35.2-28.8 64-64 64H256c-35.2 0-64-28.8-64-64v-96c0-19.2 12.8-32 32-32s32 12.8 32 32v96h512v-96z" fill="#597EF7" p-id="12741"></path><path d="M310.4 534.4c-6.4 6.4-12.8 9.6-22.4 9.6H224c-19.2 0-32-12.8-32-32s12.8-32 32-32h51.2l118.4-118.4c16-16 38.4-12.8 51.2 6.4l102.4 179.2 35.2-54.4c6.4-9.6 16-12.8 25.6-12.8h192c19.2 0 32 12.8 32 32s-12.8 32-32 32h-176l-54.4 83.2c-12.8 19.2-41.6 19.2-54.4-3.2l-108.8-188.8-96 99.2z" fill="#50E3C2" p-id="12742"></path></svg>