<?xml version="1.0" standalone="no"?><!DOCTYPE svg PUBLIC "-//W3C//DTD SVG 1.1//EN" "http://www.w3.org/Graphics/SVG/1.1/DTD/svg11.dtd"><svg t="1557577495961" class="icon" style="" viewBox="0 0 1024 1024" version="1.1" xmlns="http://www.w3.org/2000/svg" p-id="6206" xmlns:xlink="http://www.w3.org/1999/xlink" width="200" height="200"><defs><style type="text/css"></style></defs><path d="M984.064 274.432V195.584a140.8 140.8 0 0 0-140.8-140.8H180.736A140.8 140.8 0 0 0 39.936 195.584v78.848a139.776 139.776 0 0 0 44.544 102.4 139.776 139.776 0 0 0-44.544 102.4v78.848a139.776 139.776 0 0 0 44.544 102.4 139.776 139.776 0 0 0-44.544 102.4v78.848a140.8 140.8 0 0 0 140.8 141.312h365.056a38.4 38.4 0 0 0 0-76.8H180.736a64 64 0 0 1-64-64V762.88a64 64 0 0 1 64-64h379.392a38.4 38.4 0 0 0 0-76.8H180.736a64 64 0 0 1-64-64V479.232a64 64 0 0 1 64-64h662.528a64 64 0 0 1 64 64v78.848a64 64 0 0 1-64 64 38.4 38.4 0 0 0 0 76.8 64 64 0 0 1 64 64v78.848a64 64 0 0 1-64 64 38.4 38.4 0 0 0 0 76.8 140.8 140.8 0 0 0 140.8-140.8V762.88a139.776 139.776 0 0 0-44.544-102.4 139.776 139.776 0 0 0 44.544-102.4V479.232a139.776 139.776 0 0 0-44.544-102.4 139.776 139.776 0 0 0 44.544-102.4zM180.736 338.432a64 64 0 0 1-64-64V195.584a64 64 0 0 1 64-64h662.528a64 64 0 0 1 64 64v78.848a64 64 0 0 1-64 64z" fill="#438CFF" p-id="6207"></path><path d="M773.12 190.976H409.6a38.4 38.4 0 0 0 0 76.8h363.52a38.4 38.4 0 1 0 0-76.8zM256 202.24a37.888 37.888 0 0 0-8.192 41.984A32.768 32.768 0 0 0 256 256a38.4 38.4 0 0 0 41.984 8.192A40.448 40.448 0 0 0 307.2 256a32.768 32.768 0 0 0 8.192-12.288 37.888 37.888 0 0 0-8.192-41.472 39.936 39.936 0 0 0-51.2 0zM256 494.592a37.888 37.888 0 0 0-8.192 41.984 32.768 32.768 0 0 0 8.192 12.288 38.4 38.4 0 0 0 41.984 8.192 40.448 40.448 0 0 0 9.216-8.192 32.768 32.768 0 0 0 8.192-12.288 37.888 37.888 0 0 0-8.192-41.984 39.936 39.936 0 0 0-51.2 0zM256 775.168a37.888 37.888 0 0 0-8.192 41.984 32.768 32.768 0 0 0 8.192 12.288 38.4 38.4 0 0 0 41.984 8.192 40.448 40.448 0 0 0 9.216-8.192 32.768 32.768 0 0 0 9.728-10.24 37.888 37.888 0 0 0-9.728-44.032 39.936 39.936 0 0 0-51.2 0zM702.976 840.704a38.4 38.4 0 0 0 38.4-38.4V504.832a38.4 38.4 0 0 0-76.8 0v297.472a38.4 38.4 0 0 0 38.4 38.4z" fill="#438CFF" p-id="6208"></path><path d="M702.976 937.984m-51.2 0a51.2 51.2 0 1 0 102.4 0 51.2 51.2 0 1 0-102.4 0Z" fill="#438CFF" p-id="6209"></path></svg>