<?xml version="1.0" standalone="no"?><!DOCTYPE svg PUBLIC "-//W3C//DTD SVG 1.1//EN" "http://www.w3.org/Graphics/SVG/1.1/DTD/svg11.dtd"><svg t="1557626645297" class="icon" style="" viewBox="0 0 1024 1024" version="1.1" xmlns="http://www.w3.org/2000/svg" p-id="2225" xmlns:xlink="http://www.w3.org/1999/xlink" width="200" height="200"><defs><style type="text/css"></style></defs><path d="M597.333333 774.257778V967.111111h-113.777777V765.458963c-99.00563-32.009481-170.666667-124.833185-170.666667-234.496 0-136.154074 110.364444-246.518519 246.518518-246.518519s246.518519 110.364444 246.518519 246.518519c0 123.221333-90.491259 225.014519-208.592593 243.294815z" fill="#0099FF" opacity=".2" p-id="2226"></path><path d="M978.849185 523.738074h-18.962963a28.444444 28.444444 0 1 1 0-56.888889h18.962963a28.444444 28.444444 0 1 1 0 56.888889z m-48.317629-237.226667l-16.421926 9.481482a28.444444 28.444444 0 0 1-28.444445-49.265778l16.421926-9.481481a28.444444 28.444444 0 0 1 28.444445 49.265777zM654.222222 798.473481V986.074074a37.925926 37.925926 0 0 1-37.925926 37.925926h-227.555555a37.925926 37.925926 0 0 1-37.925926-37.925926v-187.600593c-112.298667-55.902815-189.62963-171.501037-189.62963-305.436444 0-188.510815 152.822519-341.333333 341.333334-341.333333s341.333333 152.822519 341.333333 341.333333c0 133.935407-77.349926 249.53363-189.62963 305.436444z m-246.518518 149.674667a18.962963 18.962963 0 0 0 18.962963 18.962963h151.703703a18.962963 18.962963 0 0 0 18.962963-18.962963v-127.412148a340.916148 340.916148 0 0 1-94.814814 13.63437c-32.938667 0-64.682667-4.93037-94.814815-13.63437V948.148148z m94.72-739.65037c-157.089185 0-284.444444 127.374222-284.444445 284.48237 0 157.127111 127.355259 284.501333 284.444445 284.501333 157.089185 0 284.444444-127.374222 284.444444-284.501333 0-157.108148-127.355259-284.48237-284.444444-284.48237z m258.161777-86.869334a28.425481 28.425481 0 0 1-38.855111 10.410667 28.425481 28.425481 0 0 1-10.410666-38.855111l9.481481-16.421926a28.444444 28.444444 0 0 1 49.265778 28.444445l-9.481482 16.421925zM512 75.851852a28.444444 28.444444 0 0 1-28.444444-28.444445v-18.962963a28.444444 28.444444 0 0 1 56.888888 0v18.962963a28.444444 28.444444 0 0 1-28.444444 28.444445z m-209.73037 56.187259a28.425481 28.425481 0 0 1-38.855111-10.410667l-9.481482-16.421925a28.444444 28.444444 0 0 1 49.265778-28.444445l9.481481 16.421926a28.444444 28.444444 0 0 1-10.410666 38.855111zM138.334815 743.879111l-16.421926 9.481482a28.444444 28.444444 0 1 1-28.444445-49.265778l16.421926-9.481482a28.444444 28.444444 0 0 1 28.444445 49.265778z m-28.444445-447.886222l-16.421926-9.481482a28.444444 28.444444 0 1 1 28.444445-49.265777l16.421926 9.481481a28.444444 28.444444 0 0 1-28.444445 49.265778z m-17.351111 199.300741a28.444444 28.444444 0 0 1-28.425481 28.444444h-18.962963a28.444444 28.444444 0 1 1 0-56.888889h18.962963a28.444444 28.444444 0 0 1 28.425481 28.444445zM914.10963 694.613333l16.421926 9.481482a28.444444 28.444444 0 0 1-28.444445 49.265778l-16.421926-9.481482a28.444444 28.444444 0 0 1 28.444445-49.265778z" fill="#0099FF" p-id="2227"></path></svg>